<svg xmlns="http://www.w3.org/2000/svg" viewBox="0 0 16 16">
  <!-- Gear / settings: outline only -->
  <path d="M8,5.2 C6.45,5.2 5.2,6.45 5.2,8 C5.2,9.55 6.45,10.8 8,10.8 C9.55,10.8 10.8,9.55 10.8,8 C10.8,6.45 9.55,5.2 8,5.2 Z
           M8,6.5 C8.83,6.5 9.5,7.17 9.5,8 C9.5,8.83 8.83,9.5 8,9.5 C7.17,9.5 6.5,8.83 6.5,8 C6.5,7.17 7.17,6.5 8,6.5 Z"
        fill="#7aaa7a"/>
  <!-- Gear teeth: 8 teeth via rotated rects -->
  <rect x="7.3" y="1.2" width="1.4" height="2.2" rx="0.5" fill="#7aaa7a"/>
  <rect x="7.3" y="12.6" width="1.4" height="2.2" rx="0.5" fill="#7aaa7a"/>
  <rect x="1.2" y="7.3" width="2.2" height="1.4" rx="0.5" fill="#7aaa7a"/>
  <rect x="12.6" y="7.3" width="2.2" height="1.4" rx="0.5" fill="#7aaa7a"/>
  <rect x="3.3" y="2.6" width="1.4" height="2.2" rx="0.5" fill="#7aaa7a" transform="rotate(45 4 3.7)"/>
  <rect x="11.3" y="2.6" width="1.4" height="2.2" rx="0.5" fill="#7aaa7a" transform="rotate(-45 12 3.7)"/>
  <rect x="3.3" y="11.2" width="1.4" height="2.2" rx="0.5" fill="#7aaa7a" transform="rotate(-45 4 12.3)"/>
  <rect x="11.3" y="11.2" width="1.4" height="2.2" rx="0.5" fill="#7aaa7a" transform="rotate(45 12 12.3)"/>
</svg>
