<svg xmlns="http://www.w3.org/2000/svg" viewBox="0 0 16 16">
  <!-- Python logo: blue snake (top-left) + yellow snake (bottom-right) -->
  <!-- Blue snake body -->
  <path d="M8,7.5 L9.5,7.5 C11.2,7.5 12,6.7 12,5 L12,4 C12,2.3 11.2,1.5 9.5,1.5 L6.5,1.5 C5.5,1.5 5,2 5,2.8 L5,4 L8,4 L8,4.5 L4,4.5 C3,4.5 2,5.2 2,7 L2,8.5 C2,9.8 2.8,10.5 4,10.5 L4,9 C3.7,9 3.5,8.8 3.5,8.5 L3.5,7 C3.5,6.2 3.8,6 4.5,6 L8,6 C9,6 9.5,5.5 9.5,4.5 L9.5,3 C9.5,2.7 9.3,2.5 9,2.5 L7,2.5 C6.7,2.5 6.5,2.7 6.5,3 L6.5,3.5 L9,3.5 L9,4.5 L6.5,4.5 L6.5,4 L5.5,4 L5.5,2.8 C5.5,2.3 5.9,2 6.5,2 L9.5,2 C10.9,2 11.5,2.7 11.5,4 L11.5,5 C11.5,6.3 10.9,7 9.5,7 L8,7 Z" fill="#4584b6"/>
  <!-- Yellow snake body - darker yellow for light mode visibility -->
  <path d="M8,8.5 L6.5,8.5 C4.8,8.5 4,9.3 4,11 L4,12 C4,13.7 4.8,14.5 6.5,14.5 L9.5,14.5 C10.5,14.5 11,14 11,13.2 L11,12 L8,12 L8,11.5 L12,11.5 C13,11.5 14,10.8 14,9 L14,7.5 C14,6.2 13.2,5.5 12,5.5 L12,7 C12.3,7 12.5,7.2 12.5,7.5 L12.5,9 C12.5,9.8 12.2,10 11.5,10 L8,10 C7,10 6.5,10.5 6.5,11.5 L6.5,13 C6.5,13.3 6.7,13.5 7,13.5 L9,13.5 C9.3,13.5 9.5,13.3 9.5,13 L9.5,12.5 L7,12.5 L7,11.5 L9.5,11.5 L9.5,12 L10.5,12 L10.5,13.2 C10.5,13.7 10.1,14 9.5,14 L6.5,14 C5.1,14 4.5,13.3 4.5,12 L4.5,11 C4.5,9.7 5.1,9 6.5,9 L8,9 Z" fill="#c8960c"/>
  <!-- Eyes -->
  <circle cx="9.5" cy="3.2" r="0.6" fill="#fff"/>
  <circle cx="6.5" cy="12.8" r="0.6" fill="#fff"/>
</svg>
