<svg width="24" height="24" viewBox="0 0 24 24" fill="none" xmlns="http://www.w3.org/2000/svg">
  <!-- VSCode icon based on official branding -->
  <path d="M22.3 5.8L17.5 3.3C17.2 3.1 16.8 3.1 16.5 3.3L7.8 10.5L4.1 7.8C3.9 7.6 3.6 7.6 3.4 7.8L2.1 9C1.9 9.2 1.9 9.5 2.1 9.7L5.2 12.5L2.1 15.3C1.9 15.5 1.9 15.8 2.1 16L3.4 17.2C3.6 17.4 3.9 17.4 4.1 17.2L7.8 14.5L16.5 21.7C16.8 21.9 17.2 21.9 17.5 21.7L22.3 19.2C22.7 19 22.9 18.6 22.9 18.2V6.8C22.9 6.4 22.7 6 22.3 5.8ZM17 17.5L10.5 12.5L17 7.5V17.5Z" fill="#007ACC"/>
</svg>
